<svg width="18" height="18" viewBox="0 0 18 18" xmlns="http://www.w3.org/2000/svg">
<path fill-rule="evenodd" clip-rule="evenodd" d="M18 2C18 1.19107 17.5127 0.4618 16.7654 0.152238C16.018 -0.157324 15.1578 0.0137879 14.5858 0.585784L12.1716 3H5.82843L3.41421 0.585784C2.84222 0.0137879 1.98198 -0.157324 1.23463 0.152238C0.487284 0.4618 0 1.19107 0 2V16C0 17.1046 0.89543 18 2 18H16C17.1046 18 18 17.1046 18 16V2ZM5 8C5 7.44772 5.44772 7 6 7C6.55228 7 7 7.44772 7 8C7 8.55228 6.55228 9 6 9C5.44772 9 5 8.55228 5 8ZM12.5408 11.1588C13.0053 11.4575 13.1398 12.0762 12.8412 12.5408L12.7397 12.6986C12.4013 13.225 11.8884 13.6153 11.291 13.8012C10.7758 13.9615 10.2242 13.9615 9.70904 13.8012C9.45512 13.7222 9.21647 13.6063 9 13.4587C8.78353 13.6063 8.54488 13.7222 8.29095 13.8012C7.77583 13.9615 7.22417 13.9615 6.70904 13.8012C6.11159 13.6153 5.59867 13.225 5.26032 12.6986L5.15882 12.5408C4.86017 12.0762 4.99467 11.4575 5.45924 11.1588C5.92381 10.8602 6.54253 10.9947 6.84118 11.4592L6.94268 11.6171C7.02687 11.7481 7.15451 11.8452 7.30318 11.8915C7.43136 11.9314 7.56864 11.9314 7.69682 11.8915C7.84549 11.8452 7.97313 11.7481 8.05732 11.6171L8.15798 11.4606C8.55199 10.8476 9.44797 10.8476 9.84202 11.4606L9.94267 11.6171C10.0269 11.7481 10.1545 11.8452 10.3032 11.8915C10.4314 11.9314 10.5686 11.9314 10.6968 11.8915C10.8455 11.8452 10.9731 11.7481 11.0573 11.6171L11.1588 11.4592C11.4575 10.9947 12.0762 10.8602 12.5408 11.1588ZM12 7C11.4477 7 11 7.44772 11 8C11 8.55228 11.4477 9 12 9C12.5523 9 13 8.55228 13 8C13 7.44772 12.5523 7 12 7Z"/>
</svg>
