<svg width="18" height="18" viewBox="0 0 18 18" xmlns="http://www.w3.org/2000/svg">
<g clip-path="url(#clip0_2_396)">
<path d="M17 2C17 1.59554 16.7564 1.2309 16.3827 1.07612C16.009 0.921338 15.5789 1.0069 15.2929 1.29289L12.5858 4H5.41421L2.70711 1.29289C2.42111 1.0069 1.99099 0.921338 1.61732 1.07612C1.24364 1.2309 1 1.59554 1 2V16C1 16.5523 1.44772 17 2 17H16C16.5523 17 17 16.5523 17 16V2Z" stroke="black" stroke-width="2" stroke-linejoin="round"/>
<path d="M6 12L6.1015 12.1579C6.31277 12.4865 6.63305 12.7303 7.00611 12.8463C7.32777 12.9464 7.67223 12.9464 7.99389 12.8463C8.36695 12.7303 8.68723 12.4865 8.8985 12.1579L8.99916 12.0013H9.00084L9.1015 12.1579C9.31277 12.4865 9.63305 12.7303 10.0061 12.8463C10.3278 12.9464 10.6722 12.9464 10.9939 12.8463C11.367 12.7303 11.6872 12.4865 11.8985 12.1579L12 12" stroke="black" stroke-width="2" stroke-linecap="round"/>
<path d="M5 9C5 8.44772 5.44772 8 6 8C6.55228 8 7 8.44772 7 9C7 9.55228 6.55228 10 6 10C5.44772 10 5 9.55228 5 9Z"/>
<path d="M13 9C13 8.44772 12.5523 8 12 8C11.4477 8 11 8.44772 11 9C11 9.55228 11.4477 10 12 10C12.5523 10 13 9.55228 13 9Z"/>
</g>
<defs>
<clipPath id="clip0_2_396">
<rect width="18" height="18" fill="white"/>
</clipPath>
</defs>
</svg>
